<!DOCTYPE svg PUBLIC "-//W3C//DTD SVG 1.1//EN" "http://www.w3.org/Graphics/SVG/1.1/DTD/svg11.dtd">
<!-- Uploaded to: SVG Repo, www.svgrepo.com, Transformed by: SVG Repo Mixer Tools -->
<svg fill="#FFFFFF" width="800px" height="800px" viewBox="0 0 32 32" version="1.1" xmlns="http://www.w3.org/2000/svg" stroke="#FFFFFF">
<g id="SVGRepo_bgCarrier" stroke-width="0"/>
<g id="SVGRepo_tracerCarrier" stroke-linecap="round" stroke-linejoin="round"/>
<g id="SVGRepo_iconCarrier"> <title>user</title> <path d="M16 17.25c4.556 0 8.25-3.694 8.25-8.25s-3.694-8.25-8.25-8.25c-4.556 0-8.25 3.694-8.25 8.25v0c0.005 4.554 3.696 8.245 8.249 8.25h0.001zM16 3.25c3.176 0 5.75 2.574 5.75 5.75s-2.574 5.75-5.75 5.75c-3.176 0-5.75-2.574-5.75-5.75v0c0.004-3.174 2.576-5.746 5.75-5.75h0zM30.898 29.734c-1.554-6.904-7.633-11.984-14.899-11.984s-13.345 5.080-14.88 11.882l-0.019 0.102c-0.018 0.080-0.029 0.172-0.029 0.266 0 0.69 0.56 1.25 1.25 1.25 0.596 0 1.095-0.418 1.22-0.976l0.002-0.008c1.301-5.77 6.383-10.016 12.457-10.016s11.155 4.245 12.44 9.93l0.016 0.085c0.126 0.566 0.623 0.984 1.219 0.984h0c0 0 0 0 0 0 0.095 0 0.187-0.011 0.276-0.031l-0.008 0.002c0.567-0.125 0.984-0.623 0.984-1.219 0-0.095-0.011-0.187-0.031-0.276l0.002 0.008z"/> </g>
</svg>